<svg xmlns="http://www.w3.org/2000/svg" version="1.1" xmlns:xlink="http://www.w3.org/1999/xlink" xmlns:svgjs="http://svgjs.com/svgjs" width="600" height="700" preserveAspectRatio="none" viewBox="0 0 600 700"><g mask="url(&quot;#SvgjsMask11049&quot;)" fill="none"><rect width="600" height="700" x="0" y="0" fill="url(#SvgjsLinearGradient11050)"></rect><path d="M437.61 771.65 L276.96 783.6199999999999L243.49062461588312 663.8406246158831z" fill="rgba(0, 255, 198, 1)"></path><rect width="361.8" height="361.8" clip-path="url(&quot;#SvgjsClipPath11051&quot;)" x="262.55" y="388" fill="url(#SvgjsPattern11052)" transform="rotate(34.47, 443.45, 568.9)"></rect><path d="M172.88 621.3a5.6 5.6 0 1 0-10.63-3.51 5.6 5.6 0 1 0 10.63 3.51zM157.69 616.28a5.6 5.6 0 1 0-10.63-3.52 5.6 5.6 0 1 0 10.63 3.52zM142.5 611.26a5.6 5.6 0 1 0-10.63-3.52 5.6 5.6 0 1 0 10.63 3.52zM127.31 606.23a5.6 5.6 0 1 0-10.63-3.51 5.6 5.6 0 1 0 10.63 3.51zM208.29 616.16a5.6 5.6 0 1 0-10.64-3.52 5.6 5.6 0 1 0 10.64 3.52zM193.1 611.14a5.6 5.6 0 1 0-10.64-3.52 5.6 5.6 0 1 0 10.64 3.52zM177.91 606.11a5.6 5.6 0 1 0-10.64-3.51 5.6 5.6 0 1 0 10.64 3.51zM162.71 601.09a5.6 5.6 0 1 0-10.63-3.52 5.6 5.6 0 1 0 10.63 3.52z" fill="rgba(255, 0, 0, 1)"></path><rect width="180" height="180" clip-path="url(&quot;#SvgjsClipPath11053&quot;)" x="-84.87" y="286.22" fill="url(#SvgjsPattern11054)" transform="rotate(319.48, 5.13, 376.22)"></rect><rect width="144" height="144" clip-path="url(&quot;#SvgjsClipPath11055&quot;)" x="502.35" y="442.48" fill="url(#SvgjsPattern11056)" transform="rotate(62.43, 574.35, 514.48)"></rect><rect width="333.44" height="333.44" clip-path="url(&quot;#SvgjsClipPath11057&quot;)" x="-44.23" y="-134.05" fill="url(#SvgjsPattern11058)" transform="rotate(111.15, 122.49, 32.67)"></rect></g><defs><mask id="SvgjsMask11049"><rect width="600" height="700" fill="#ffffff"></rect></mask><linearGradient x1="50%" y1="0%" x2="50%" y2="100%" gradientUnits="userSpaceOnUse" id="SvgjsLinearGradient11050"><stop stop-color="rgba(28, 0, 82, 1)" offset="0.01"></stop><stop stop-color="rgba(0, 0, 0, 1)" offset="0.97"></stop><stop stop-color="rgba(0, 0, 0, 1)" offset="1"></stop></linearGradient><pattern x="0" y="0" width="12.06" height="12.06" patternUnits="userSpaceOnUse" id="SvgjsPattern11052"><path d="M6.03 1L6.03 11.06M1 6.03L11.06 6.03" stroke="rgba(255, 0, 0, 1)" fill="none" stroke-width="1"></path></pattern><clipPath id="SvgjsClipPath11051"><circle r="90.45" cx="443.45" cy="568.9"></circle></clipPath><pattern x="0" y="0" width="6" height="6" patternUnits="userSpaceOnUse" id="SvgjsPattern11054"><path d="M3 1L3 5M1 3L5 3" stroke="rgba(0, 255, 198, 1)" fill="none" stroke-width="1.04"></path></pattern><clipPath id="SvgjsClipPath11053"><circle r="45" cx="5.13" cy="376.22"></circle></clipPath><pattern x="0" y="0" width="6" height="6" patternUnits="userSpaceOnUse" id="SvgjsPattern11056"><path d="M3 1L3 5M1 3L5 3" stroke="rgba(255, 120, 0, 1)" fill="none" stroke-width="1"></path></pattern><clipPath id="SvgjsClipPath11055"><circle r="36" cx="574.35" cy="514.48"></circle></clipPath><pattern x="0" y="0" width="10.42" height="10.42" patternUnits="userSpaceOnUse" id="SvgjsPattern11058"><path d="M5.21 1L5.21 9.42M1 5.21L9.42 5.21" stroke="rgba(0, 255, 40, 1)" fill="none" stroke-width="1"></path></pattern><clipPath id="SvgjsClipPath11057"><circle r="83.36" cx="122.49" cy="32.67"></circle></clipPath></defs></svg>