<svg xmlns="http://www.w3.org/2000/svg" version="1.1" xmlns:xlink="http://www.w3.org/1999/xlink" xmlns:svgjs="http://svgjs.com/svgjs" width="1000" height="150" preserveAspectRatio="none" viewBox="0 0 1000 150"><g mask="url(&quot;#SvgjsMask3778&quot;)" fill="none"><rect width="1000" height="150" x="0" y="0" fill="rgba(51, 68, 100, 1)"></rect><path d="M438.64 51.53L448.34 43.17 458.63 50.8 468.33 42.44 478.61 50.06 488.31 41.7 498.6 49.33" stroke="rgba(230, 0, 255, 1)" stroke-width="1.94" stroke-dasharray="4, 4"></path><path d="M861.45 154.17L873.93 157.05 873.86 169.86 886.34 172.74 886.26 185.55 898.74 188.43 898.67 201.24M855.18 159.13L867.66 162.01 867.58 174.82 880.06 177.7 879.99 190.51 892.46 193.39 892.39 206.2" stroke="rgba(0, 109, 255, 1)" stroke-width="2.65" stroke-dasharray="4, 4"></path><rect width="83.4" height="83.4" clip-path="url(&quot;#SvgjsClipPath3779&quot;)" x="551.48" y="58.54" fill="url(#SvgjsPattern3780)" transform="rotate(197.01, 593.18, 100.24)"></rect><path d="M343.78 27.93 L345.65 49.05L352.69685142134136 30.50814857865861z" fill="rgba(0, 255, 40, 1)"></path><path d="M445.22 141.99a5.6 5.6 0 1 0-5.68 9.66 5.6 5.6 0 1 0 5.68-9.66zM437.11 155.79a5.6 5.6 0 1 0-5.68 9.65 5.6 5.6 0 1 0 5.68-9.65zM429 169.58a5.6 5.6 0 1 0-5.68 9.65 5.6 5.6 0 1 0 5.68-9.65zM420.89 183.37a5.6 5.6 0 1 0-5.67 9.66 5.6 5.6 0 1 0 5.67-9.66z" fill="rgba(0, 255, 198, 1)"></path><path d="M218.95 28.68L230.1 34.98 226.4 47.24 237.55 53.54 233.85 65.81 245 72.11 241.3 84.37M211.53 31.66L222.68 37.96 218.98 50.22 230.13 56.52 226.43 68.79 237.58 75.09 233.88 87.35M204.1 34.64L215.25 40.94 211.55 53.2 222.7 59.5 219 71.77 230.15 78.07 226.45 90.33" stroke="rgba(255, 0, 0, 1)" stroke-width="1.43"></path><path d="M567.5300000000001 104.46 L585.07 115.07L563.2714242406663 122.79357575933375z" stroke="rgba(199, 255, 0, 1)" stroke-width="1" stroke-dasharray="2, 2"></path><path d="M703.58 118.13999999999999 L709.73 137.24L713.7566504485292 120.58834955147083z" fill="rgba(0, 255, 40, 1)"></path><rect width="60" height="60" clip-path="url(&quot;#SvgjsClipPath3781&quot;)" x="466.68" y="53.09" fill="url(#SvgjsPattern3782)" transform="rotate(209.68, 496.68, 83.09)"></rect><path d="M343.3 123.64 L356.91 135.97L338.22723434807085 141.6827656519292z" stroke="rgba(255, 0, 0, 1)" stroke-width="1"></path><circle r="13.937965490839932" cx="794.42" cy="4.58" stroke="rgba(0, 255, 198, 1)" stroke-width="2.05" stroke-dasharray="2, 2"></circle><path d="M560.21 47.33L563.85 35.05 576.63 35.91 580.27 23.64 593.05 24.5 596.69 12.22 609.47 13.08M564.77 53.9L568.42 41.62 581.2 42.48 584.84 30.2 597.62 31.06 601.26 18.79 614.04 19.65" stroke="rgba(0, 255, 40, 1)" stroke-width="1.81" stroke-dasharray="4, 4"></path><rect width="96" height="96" clip-path="url(&quot;#SvgjsClipPath3783&quot;)" x="199.4" y="-10.31" fill="url(#SvgjsPattern3784)" transform="rotate(142.43, 247.4, 37.69)"></rect><rect width="72" height="72" clip-path="url(&quot;#SvgjsClipPath3785&quot;)" x="833.64" y="-6.67" fill="url(#SvgjsPattern3786)" transform="rotate(218.53, 869.64, 29.33)"></rect><rect width="60" height="60" clip-path="url(&quot;#SvgjsClipPath3787&quot;)" x="222.64" y="46.07" fill="url(#SvgjsPattern3788)" transform="rotate(31.87, 252.64, 76.07)"></rect><circle r="13.920027328837042" cx="375.34" cy="109.84" fill="rgba(230, 0, 255, 1)"></circle><path d="M916.15 46.76L927.8 52.06 925.18 64.6 936.84 69.9 934.22 82.44 945.88 87.74 943.26 100.28M909.01 50.37L920.67 55.68 918.05 68.22 929.7 73.52 927.09 86.06 938.74 91.36 936.13 103.9" stroke="rgba(199, 255, 0, 1)" stroke-width="1" stroke-dasharray="2, 2"></path><rect width="60" height="60" clip-path="url(&quot;#SvgjsClipPath3789&quot;)" x="717.62" y="31.48" fill="url(#SvgjsPattern3790)" transform="rotate(163.86, 747.62, 61.48)"></rect><rect width="60" height="60" clip-path="url(&quot;#SvgjsClipPath3791&quot;)" x="962.77" y="0.66" fill="url(#SvgjsPattern3792)" transform="rotate(256.45, 992.77, 30.66)"></rect><rect width="108.8" height="108.8" clip-path="url(&quot;#SvgjsClipPath3793&quot;)" x="368.23" y="-26.58" fill="url(#SvgjsPattern3794)" transform="rotate(67.55, 422.63, 27.82)"></rect><rect width="80.6" height="80.6" clip-path="url(&quot;#SvgjsClipPath3795&quot;)" x="699.97" y="95.62" fill="url(#SvgjsPattern3796)" transform="rotate(117.96, 740.27, 135.92)"></rect><path d="M883.37 58.32L885.54 70.94 873.7 75.82 875.87 88.45 864.03 93.33 866.2 105.95 854.36 110.84M876.37 54.45L878.54 67.07 866.7 71.96 868.87 84.58 857.03 89.46 859.2 102.09 847.36 106.97" stroke="rgba(199, 255, 0, 1)" stroke-width="1" stroke-dasharray="3, 3"></path><circle r="12.5" cx="907.8" cy="38.22" stroke="rgba(0, 255, 40, 1)" stroke-width="1" stroke-dasharray="4, 4"></circle><rect width="84" height="84" clip-path="url(&quot;#SvgjsClipPath3797&quot;)" x="559.79" y="-36.67" fill="url(#SvgjsPattern3798)" transform="rotate(296.72, 601.79, 5.33)"></rect><circle r="12.5" cx="849.41" cy="71.93" fill="rgba(255, 0, 0, 1)"></circle><path d="M197.35 77.39L208.28 84.06 204.16 96.19 215.09 102.87 210.97 115 221.9 121.67 217.78 133.8M189.83 80.11L200.75 86.79 196.64 98.92 207.56 105.59 203.45 117.72 214.37 124.4 210.26 136.52M182.3 82.83L193.23 89.51 189.11 101.64 200.04 108.32 195.93 120.44 206.85 127.12 202.74 139.25" stroke="rgba(230, 0, 255, 1)" stroke-width="1"></path><rect width="96" height="96" clip-path="url(&quot;#SvgjsClipPath3799&quot;)" x="446.1" y="9.65" fill="url(#SvgjsPattern3800)" transform="rotate(176.54, 494.1, 57.65)"></rect><path d="M647.57 37.13a5.6 5.6 0 1 0-10.69-3.34 5.6 5.6 0 1 0 10.69 3.34zM632.3 32.35a5.6 5.6 0 1 0-10.69-3.34 5.6 5.6 0 1 0 10.69 3.34zM617.03 27.58a5.6 5.6 0 1 0-10.69-3.34 5.6 5.6 0 1 0 10.69 3.34zM601.76 22.81a5.6 5.6 0 1 0-10.69-3.34 5.6 5.6 0 1 0 10.69 3.34z" fill="rgba(255, 120, 0, 1)"></path><path d="M854.96 25.68L857.4 38.26 845.67 43.39 848.1 55.96 836.37 61.1 838.81 73.67 827.08 78.81M847.88 21.97L850.31 34.54 838.58 39.67 841.02 52.25 829.29 57.38 831.73 69.96 819.99 75.09" stroke="rgba(255, 120, 0, 1)" stroke-width="1" stroke-dasharray="4, 4"></path><path d="M527.35 77.00999999999999 L528.62 56.989999999999995L540.4189517600271 79.43395176002711z" fill="rgba(0, 255, 40, 1)"></path></g><defs><mask id="SvgjsMask3778"><rect width="1000" height="150" fill="#ffffff"></rect></mask><pattern x="0" y="0" width="8.34" height="8.34" patternUnits="userSpaceOnUse" id="SvgjsPattern3780"><path d="M0 8.34L4.17 0L8.34 8.34" stroke="rgba(255, 0, 0, 1)" fill="none"></path></pattern><clipPath id="SvgjsClipPath3779"><circle r="20.85" cx="593.18" cy="100.24"></circle></clipPath><pattern x="0" y="0" width="60" height="6" patternUnits="userSpaceOnUse" id="SvgjsPattern3782"><rect width="60" height="3" x="0" y="0" fill="rgba(0, 255, 198, 1)"></rect><rect width="60" height="3" x="0" y="3" fill="rgba(0, 0, 0, 0)"></rect></pattern><clipPath id="SvgjsClipPath3781"><circle r="15" cx="496.68" cy="83.09"></circle></clipPath><pattern x="0" y="0" width="6" height="6" patternUnits="userSpaceOnUse" id="SvgjsPattern3784"><path d="M3 1L3 5M1 3L5 3" stroke="rgba(255, 120, 0, 1)" fill="none" stroke-width="1"></path></pattern><clipPath id="SvgjsClipPath3783"><circle r="24" cx="247.4" cy="37.69"></circle></clipPath><pattern x="0" y="0" width="6" height="6" patternUnits="userSpaceOnUse" id="SvgjsPattern3786"><path d="M0 6L3 0L6 6" stroke="rgba(199, 255, 0, 1)" fill="none"></path></pattern><clipPath id="SvgjsClipPath3785"><circle r="18" cx="869.64" cy="29.33"></circle></clipPath><pattern x="0" y="0" width="6" height="6" patternUnits="userSpaceOnUse" id="SvgjsPattern3788"><path d="M0 6L3 0L6 6" stroke="rgba(0, 255, 40, 1)" fill="none"></path></pattern><clipPath id="SvgjsClipPath3787"><circle r="15" cx="252.64" cy="76.07"></circle></clipPath><pattern x="0" y="0" width="6" height="6" patternUnits="userSpaceOnUse" id="SvgjsPattern3790"><path d="M3 1L3 5M1 3L5 3" stroke="rgba(255, 0, 0, 1)" fill="none" stroke-width="1"></path></pattern><clipPath id="SvgjsClipPath3789"><circle r="15" cx="747.62" cy="61.48"></circle></clipPath><pattern x="0" y="0" width="6" height="6" patternUnits="userSpaceOnUse" id="SvgjsPattern3792"><path d="M3 1L3 5M1 3L5 3" stroke="rgba(0, 255, 198, 1)" fill="none" stroke-width="1"></path></pattern><clipPath id="SvgjsClipPath3791"><circle r="15" cx="992.77" cy="30.66"></circle></clipPath><pattern x="0" y="0" width="10.88" height="10.88" patternUnits="userSpaceOnUse" id="SvgjsPattern3794"><path d="M5.44 1L5.44 9.88M1 5.44L9.88 5.44" stroke="rgba(0, 109, 255, 1)" fill="none" stroke-width="4.42"></path></pattern><clipPath id="SvgjsClipPath3793"><circle r="27.2" cx="422.63" cy="27.82"></circle></clipPath><pattern x="0" y="0" width="80.6" height="8.06" patternUnits="userSpaceOnUse" id="SvgjsPattern3796"><rect width="80.6" height="4.03" x="0" y="0" fill="rgba(0, 109, 255, 1)"></rect><rect width="80.6" height="4.03" x="0" y="4.03" fill="rgba(0, 0, 0, 0)"></rect></pattern><clipPath id="SvgjsClipPath3795"><circle r="20.15" cx="740.27" cy="135.92"></circle></clipPath><pattern x="0" y="0" width="6" height="6" patternUnits="userSpaceOnUse" id="SvgjsPattern3798"><path d="M3 1L3 5M1 3L5 3" stroke="rgba(0, 255, 40, 1)" fill="none" stroke-width="1"></path></pattern><clipPath id="SvgjsClipPath3797"><circle r="21" cx="601.79" cy="5.33"></circle></clipPath><pattern x="0" y="0" width="6" height="6" patternUnits="userSpaceOnUse" id="SvgjsPattern3800"><path d="M3 1L3 5M1 3L5 3" stroke="rgba(0, 109, 255, 1)" fill="none" stroke-width="1"></path></pattern><clipPath id="SvgjsClipPath3799"><circle r="24" cx="494.1" cy="57.65"></circle></clipPath></defs></svg>