<svg xmlns="http://www.w3.org/2000/svg" version="1.1" xmlns:xlink="http://www.w3.org/1999/xlink" xmlns:svgjs="http://svgjs.com/svgjs" width="1300" height="130" preserveAspectRatio="none" viewBox="0 0 1300 130"><g mask="url(&quot;#SvgjsMask61139&quot;)" fill="none"><rect width="1300" height="130" x="0" y="0" fill="url(#SvgjsLinearGradient61140)"></rect><rect width="65.2" height="65.2" clip-path="url(&quot;#SvgjsClipPath61141&quot;)" x="716.87" y="59.8" fill="url(#SvgjsPattern61142)" transform="rotate(166.96, 749.47, 92.4)"></rect><rect width="60" height="60" clip-path="url(&quot;#SvgjsClipPath61143&quot;)" x="929.72" y="91.45" fill="url(#SvgjsPattern61144)" transform="rotate(51.07, 959.72, 121.45)"></rect><path d="M972.99 66.16 L963.01 60.56999999999999L972.4354537802432 58.9295462197568z" fill="rgba(255, 0, 0, 1)"></path><path d="M143.66 99.93a5.6 5.6 0 1 0 6.73-8.95 5.6 5.6 0 1 0-6.73 8.95zM153.27 87.14a5.6 5.6 0 1 0 6.72-8.96 5.6 5.6 0 1 0-6.72 8.96zM162.88 74.34a5.6 5.6 0 1 0 6.72-8.95 5.6 5.6 0 1 0-6.72 8.95zM172.48 61.55a5.6 5.6 0 1 0 6.73-8.96 5.6 5.6 0 1 0-6.73 8.96z" stroke="rgba(199, 255, 0, 1)" stroke-width="1" stroke-dasharray="3, 3"></path><circle r="17.545516059941484" cx="394.58" cy="23.51" fill="rgba(0, 109, 255, 1)"></circle><path d="M916.26 132.68 L889.36 110.92L881.4713882527885 143.1386117472114z" stroke="rgba(0, 255, 198, 1)" stroke-width="2.48" stroke-dasharray="3, 3"></path><path d="M329.16 108.34a5.6 5.6 0 1 0 2.11-11 5.6 5.6 0 1 0-2.11 11zM332.17 92.62a5.6 5.6 0 1 0 2.11-11 5.6 5.6 0 1 0-2.11 11zM335.18 76.91a5.6 5.6 0 1 0 2.11-11 5.6 5.6 0 1 0-2.11 11zM338.19 61.19a5.6 5.6 0 1 0 2.11-10.99 5.6 5.6 0 1 0-2.11 10.99zM338.85 142.78a5.6 5.6 0 1 0 2.11-11 5.6 5.6 0 1 0-2.11 11zM341.86 127.06a5.6 5.6 0 1 0 2.11-11 5.6 5.6 0 1 0-2.11 11zM344.87 111.35a5.6 5.6 0 1 0 2.11-11 5.6 5.6 0 1 0-2.11 11zM347.88 95.63a5.6 5.6 0 1 0 2.11-11 5.6 5.6 0 1 0-2.11 11zM348.54 177.22a5.6 5.6 0 1 0 2.11-11 5.6 5.6 0 1 0-2.11 11zM351.55 161.5a5.6 5.6 0 1 0 2.11-11 5.6 5.6 0 1 0-2.11 11zM354.56 145.79a5.6 5.6 0 1 0 2.11-11 5.6 5.6 0 1 0-2.11 11zM357.57 130.07a5.6 5.6 0 1 0 2.11-11 5.6 5.6 0 1 0-2.11 11z" stroke="rgba(0, 255, 40, 1)" stroke-width="1.11" stroke-dasharray="3, 2"></path><path d="M691.06 120.72L697.53 131.77 688.16 140.51 694.63 151.56 685.27 160.3 691.73 171.35 682.37 180.09" stroke="rgba(0, 255, 40, 1)" stroke-width="1" stroke-dasharray="2, 2"></path><path d="M1166.59 84.88 L1162.58 94.85L1170.6616930261 95.9416930260999z" stroke="rgba(0, 255, 198, 1)" stroke-width="2.86" stroke-dasharray="3, 3"></path><path d="M776.32 13.02L773.95 0.44 785.7-4.64 783.33-17.22 795.08-22.3 792.71-34.89 804.46-39.97M783.39 16.78L781.01 4.19 792.77-0.89 790.39-13.47 802.15-18.55 799.77-31.14 811.53-36.22" stroke="rgba(0, 255, 40, 1)" stroke-width="1" stroke-dasharray="3, 3"></path><path d="M394.63 36.16a5.6 5.6 0 1 0 9.79-5.43 5.6 5.6 0 1 0-9.79 5.43zM408.62 28.4a5.6 5.6 0 1 0 9.79-5.44 5.6 5.6 0 1 0-9.79 5.44zM422.6 20.63a5.6 5.6 0 1 0 9.8-5.44 5.6 5.6 0 1 0-9.8 5.44zM436.59 12.86a5.6 5.6 0 1 0 9.79-5.43 5.6 5.6 0 1 0-9.79 5.43zM374.42 65.69a5.6 5.6 0 1 0 9.79-5.44 5.6 5.6 0 1 0-9.79 5.44zM388.4 57.92a5.6 5.6 0 1 0 9.8-5.44 5.6 5.6 0 1 0-9.8 5.44zM402.39 50.15a5.6 5.6 0 1 0 9.8-5.43 5.6 5.6 0 1 0-9.8 5.43zM416.38 42.39a5.6 5.6 0 1 0 9.79-5.44 5.6 5.6 0 1 0-9.79 5.44z" fill="rgba(199, 255, 0, 1)"></path><rect width="60" height="60" clip-path="url(&quot;#SvgjsClipPath61145&quot;)" x="624.43" y="27.63" fill="url(#SvgjsPattern61146)" transform="rotate(40.34, 654.43, 57.63)"></rect><path d="M194.61 112.86a5.6 5.6 0 1 0-10.98 2.21 5.6 5.6 0 1 0 10.98-2.21zM178.93 116.02a5.6 5.6 0 1 0-10.99 2.2 5.6 5.6 0 1 0 10.99-2.2zM163.24 119.17a5.6 5.6 0 1 0-10.98 2.2 5.6 5.6 0 1 0 10.98-2.2zM147.55 122.32a5.6 5.6 0 1 0-10.98 2.2 5.6 5.6 0 1 0 10.98-2.2z" fill="rgba(255, 120, 0, 1)"></path><path d="M445.48 29.759999999999998 L441.68 49.57L436.371908179065 32.456908179064925z" stroke="rgba(199, 255, 0, 1)" stroke-width="1" stroke-dasharray="4, 4"></path><circle r="14.656066276148124" cx="193.54" cy="127.97" stroke="rgba(0, 109, 255, 1)" stroke-width="1.79" stroke-dasharray="4, 4"></circle><rect width="104" height="104" clip-path="url(&quot;#SvgjsClipPath61147&quot;)" x="1000.17" y="-14.49" fill="url(#SvgjsPattern61148)" transform="rotate(70.31, 1052.17, 37.51)"></rect><rect width="80.4" height="80.4" clip-path="url(&quot;#SvgjsClipPath61149&quot;)" x="1062.82" y="-11.06" fill="url(#SvgjsPattern61150)" transform="rotate(127.31, 1103.02, 29.14)"></rect><path d="M912.25 112.84L924.98 111.49 929.1 123.61 941.83 122.26 945.95 134.39 958.69 133.03 962.8 145.16M907.94 119.58L920.67 118.23 924.79 130.35 937.53 129 941.64 141.13 954.38 139.77 958.49 151.9" stroke="rgba(0, 255, 40, 1)" stroke-width="1.22" stroke-dasharray="2, 2"></path><rect width="60" height="60" clip-path="url(&quot;#SvgjsClipPath61151&quot;)" x="246.17" y="51.67" fill="url(#SvgjsPattern61152)" transform="rotate(283.86, 276.17, 81.67)"></rect><rect width="109.39999999999999" height="109.39999999999999" clip-path="url(&quot;#SvgjsClipPath61153&quot;)" x="361.23" y="67.21" fill="url(#SvgjsPattern61154)" transform="rotate(249.28, 415.93, 121.91)"></rect><rect width="94.60000000000001" height="94.60000000000001" clip-path="url(&quot;#SvgjsClipPath61155&quot;)" x="495.65" y="-39.03" fill="url(#SvgjsPattern61156)" transform="rotate(329.05, 542.95, 8.27)"></rect><rect width="60" height="60" clip-path="url(&quot;#SvgjsClipPath61157&quot;)" x="930.6" y="68.94" fill="url(#SvgjsPattern61158)" transform="rotate(226.2, 960.6, 98.94)"></rect><circle r="16.87139952636388" cx="1122.82" cy="48.55" fill="rgba(0, 255, 40, 1)"></circle><rect width="60" height="60" clip-path="url(&quot;#SvgjsClipPath61159&quot;)" x="904.19" y="-12.01" fill="url(#SvgjsPattern61160)" transform="rotate(287.7, 934.19, 17.99)"></rect><rect width="60" height="60" clip-path="url(&quot;#SvgjsClipPath61161&quot;)" x="356.94" y="13.68" fill="url(#SvgjsPattern61162)" transform="rotate(112.37, 386.94, 43.68)"></rect><rect width="60" height="60" clip-path="url(&quot;#SvgjsClipPath61163&quot;)" x="580.65" y="39.65" fill="url(#SvgjsPattern61164)" transform="rotate(115.56, 610.65, 69.65)"></rect><path d="M1093.68 102.67L1104.18 95.34 1113.64 103.97 1124.14 96.63 1133.6 105.26 1144.1 97.93 1153.56 106.56" stroke="rgba(199, 255, 0, 1)" stroke-width="2.48" stroke-dasharray="3, 3"></path><rect width="84" height="84" clip-path="url(&quot;#SvgjsClipPath61165&quot;)" x="904.66" y="48.03" fill="url(#SvgjsPattern61166)" transform="rotate(192.34, 946.66, 90.03)"></rect><rect width="79.6" height="79.6" clip-path="url(&quot;#SvgjsClipPath61167&quot;)" x="1070.12" y="-33.55" fill="url(#SvgjsPattern61168)" transform="rotate(274.17, 1109.92, 6.25)"></rect><path d="M1152.46 114.93a5.6 5.6 0 1 0-5.8-9.59 5.6 5.6 0 1 0 5.8 9.59zM1144.18 101.24a5.6 5.6 0 1 0-5.8-9.59 5.6 5.6 0 1 0 5.8 9.59zM1135.9 87.55a5.6 5.6 0 1 0-5.8-9.59 5.6 5.6 0 1 0 5.8 9.59zM1127.62 73.86a5.6 5.6 0 1 0-5.8-9.59 5.6 5.6 0 1 0 5.8 9.59z" stroke="rgba(255, 120, 0, 1)" stroke-width="1"></path><rect width="95.19999999999999" height="95.19999999999999" clip-path="url(&quot;#SvgjsClipPath61169&quot;)" x="297.6" y="-32.77" fill="url(#SvgjsPattern61170)" transform="rotate(302.09, 345.2, 14.83)"></rect><circle r="10.833333333333334" cx="300.55" cy="27.18" stroke="rgba(255, 0, 0, 1)" stroke-width="1.25" stroke-dasharray="3, 3"></circle><rect width="77" height="77" clip-path="url(&quot;#SvgjsClipPath61171&quot;)" x="101.87" y="-34.31" fill="url(#SvgjsPattern61172)" transform="rotate(165.87, 140.37, 4.19)"></rect><path d="M616.03 74.56a5.6 5.6 0 1 0 9.98 5.09 5.6 5.6 0 1 0-9.98-5.09zM630.29 81.83a5.6 5.6 0 1 0 9.97 5.09 5.6 5.6 0 1 0-9.97-5.09zM644.54 89.1a5.6 5.6 0 1 0 9.98 5.08 5.6 5.6 0 1 0-9.98-5.08zM658.79 96.37a5.6 5.6 0 1 0 9.98 5.08 5.6 5.6 0 1 0-9.98-5.08zM580.26 74.27a5.6 5.6 0 1 0 9.97 5.09 5.6 5.6 0 1 0-9.97-5.09zM594.51 81.54a5.6 5.6 0 1 0 9.98 5.09 5.6 5.6 0 1 0-9.98-5.09zM608.76 88.81a5.6 5.6 0 1 0 9.98 5.09 5.6 5.6 0 1 0-9.98-5.09zM623.02 96.08a5.6 5.6 0 1 0 9.98 5.09 5.6 5.6 0 1 0-9.98-5.09zM544.48 73.99a5.6 5.6 0 1 0 9.98 5.09 5.6 5.6 0 1 0-9.98-5.09zM558.74 81.26a5.6 5.6 0 1 0 9.97 5.09 5.6 5.6 0 1 0-9.97-5.09zM572.99 88.53a5.6 5.6 0 1 0 9.98 5.09 5.6 5.6 0 1 0-9.98-5.09zM587.24 95.8a5.6 5.6 0 1 0 9.98 5.09 5.6 5.6 0 1 0-9.98-5.09z" stroke="rgba(255, 120, 0, 1)" stroke-width="1" stroke-dasharray="3, 3"></path><path d="M984.82 95.33a5.6 5.6 0 1 0-5.6 9.7 5.6 5.6 0 1 0 5.6-9.7zM976.82 109.18a5.6 5.6 0 1 0-5.6 9.7 5.6 5.6 0 1 0 5.6-9.7zM968.82 123.04a5.6 5.6 0 1 0-5.6 9.7 5.6 5.6 0 1 0 5.6-9.7zM960.82 136.9a5.6 5.6 0 1 0-5.6 9.7 5.6 5.6 0 1 0 5.6-9.7zM986.97 59.61a5.6 5.6 0 1 0-5.6 9.7 5.6 5.6 0 1 0 5.6-9.7zM978.97 73.47a5.6 5.6 0 1 0-5.6 9.7 5.6 5.6 0 1 0 5.6-9.7zM970.97 87.33a5.6 5.6 0 1 0-5.6 9.7 5.6 5.6 0 1 0 5.6-9.7zM962.97 101.18a5.6 5.6 0 1 0-5.6 9.7 5.6 5.6 0 1 0 5.6-9.7zM989.11 23.9a5.6 5.6 0 1 0-5.6 9.7 5.6 5.6 0 1 0 5.6-9.7zM981.11 37.76a5.6 5.6 0 1 0-5.6 9.7 5.6 5.6 0 1 0 5.6-9.7zM973.11 51.61a5.6 5.6 0 1 0-5.6 9.7 5.6 5.6 0 1 0 5.6-9.7zM965.11 65.47a5.6 5.6 0 1 0-5.6 9.7 5.6 5.6 0 1 0 5.6-9.7z" stroke="rgba(255, 120, 0, 1)" stroke-width="2.33" stroke-dasharray="2, 2"></path><rect width="84" height="84" clip-path="url(&quot;#SvgjsClipPath61173&quot;)" x="856.89" y="21.7" fill="url(#SvgjsPattern61174)" transform="rotate(232.45, 898.89, 63.7)"></rect><path d="M1155.91 32.09L1150.41 20.53 1160.48 12.62 1154.98 1.06 1165.05-6.85 1159.55-18.41 1169.62-26.32M1163.7 33.92L1158.2 22.36 1168.27 14.45 1162.77 2.89 1172.84-5.02 1167.34-16.58 1177.41-24.49" stroke="rgba(199, 255, 0, 1)" stroke-width="1.09" stroke-dasharray="3, 2"></path><path d="M542.96 11.82L533.04 19.93 522.96 12.03 513.05 20.14 502.96 12.25 493.05 20.35 482.96 12.46M542.87 3.82L532.96 11.93 522.87 4.04 512.96 12.14 502.88 4.25 492.96 12.35 482.88 4.46" stroke="rgba(0, 255, 198, 1)" stroke-width="1.29" stroke-dasharray="4, 4"></path><rect width="129.2" height="129.2" clip-path="url(&quot;#SvgjsClipPath61175&quot;)" x="1057.81" y="-30.24" fill="url(#SvgjsPattern61176)" transform="rotate(230.22, 1122.41, 34.36)"></rect><rect width="60" height="60" clip-path="url(&quot;#SvgjsClipPath61177&quot;)" x="460.38" y="83.09" fill="url(#SvgjsPattern61178)" transform="rotate(165.23, 490.38, 113.09)"></rect><rect width="60" height="60" clip-path="url(&quot;#SvgjsClipPath61179&quot;)" x="407.37" y="48.91" fill="url(#SvgjsPattern61180)" transform="rotate(219.62, 437.37, 78.91)"></rect><path d="M847.47 82.54L858.41 75.89 867.31 85.1 878.25 78.45 887.14 87.66 898.08 81.01 906.98 90.22" stroke="rgba(255, 120, 0, 1)" stroke-width="1.51" stroke-dasharray="3, 3"></path><path d="M335.98 25.49L336.68 38.28 324.36 41.77 325.06 54.56 312.74 58.05 313.44 70.83 301.12 74.32M329.47 20.85L330.17 33.63 317.85 37.12 318.55 49.91 306.23 53.4 306.93 66.19 294.61 69.67M322.96 16.2L323.66 28.98 311.34 32.47 312.04 45.26 299.72 48.75 300.42 61.54 288.09 65.03" stroke="rgba(0, 109, 255, 1)" stroke-width="2.35"></path><path d="M56.38 28.67L51.17 16.97 61.44 9.33 56.24-2.37 66.51-10.02 61.3-21.72 71.57-29.37M64.12 30.7L58.91 19 69.18 11.35 63.98-0.35 74.25-8 69.04-19.7 79.31-27.34M71.86 32.73L66.65 21.03 76.92 13.38 71.71 1.68 81.99-5.97 76.78-17.67 87.05-25.32" stroke="rgba(0, 255, 198, 1)" stroke-width="1" stroke-dasharray="3, 3"></path><path d="M1093.99 112.84a5.6 5.6 0 1 0 10.41 4.12 5.6 5.6 0 1 0-10.41-4.12zM1108.87 118.73a5.6 5.6 0 1 0 10.41 4.12 5.6 5.6 0 1 0-10.41-4.12zM1123.74 124.62a5.6 5.6 0 1 0 10.42 4.12 5.6 5.6 0 1 0-10.42-4.12zM1138.62 130.51a5.6 5.6 0 1 0 10.41 4.12 5.6 5.6 0 1 0-10.41-4.12zM1058.35 115.93a5.6 5.6 0 1 0 10.41 4.13 5.6 5.6 0 1 0-10.41-4.13zM1073.22 121.82a5.6 5.6 0 1 0 10.42 4.13 5.6 5.6 0 1 0-10.42-4.13zM1088.1 127.71a5.6 5.6 0 1 0 10.41 4.13 5.6 5.6 0 1 0-10.41-4.13zM1102.98 133.6a5.6 5.6 0 1 0 10.41 4.13 5.6 5.6 0 1 0-10.41-4.13zM1022.7 119.03a5.6 5.6 0 1 0 10.42 4.12 5.6 5.6 0 1 0-10.42-4.12zM1037.58 124.92a5.6 5.6 0 1 0 10.41 4.12 5.6 5.6 0 1 0-10.41-4.12zM1052.46 130.81a5.6 5.6 0 1 0 10.41 4.12 5.6 5.6 0 1 0-10.41-4.12zM1067.33 136.7a5.6 5.6 0 1 0 10.42 4.12 5.6 5.6 0 1 0-10.42-4.12z" stroke="rgba(255, 0, 0, 1)" stroke-width="2.09" stroke-dasharray="3, 3"></path></g><defs><mask id="SvgjsMask61139"><rect width="1300" height="130" fill="#ffffff"></rect></mask><linearGradient x1="50%" y1="0%" x2="50%" y2="100%" gradientUnits="userSpaceOnUse" id="SvgjsLinearGradient61140"><stop stop-color="rgba(114, 52, 250, 1)" offset="0"></stop><stop stop-color="rgba(34, 34, 34, 1)" offset="0.84"></stop><stop stop-color="rgba(34, 34, 34, 1)" offset="0.97"></stop></linearGradient><pattern x="0" y="0" width="65.2" height="6.52" patternUnits="userSpaceOnUse" id="SvgjsPattern61142"><rect width="65.2" height="3.26" x="0" y="0" fill="rgba(0, 109, 255, 1)"></rect><rect width="65.2" height="3.26" x="0" y="3.26" fill="rgba(0, 0, 0, 0)"></rect></pattern><clipPath id="SvgjsClipPath61141"><circle r="16.3" cx="749.47" cy="92.4"></circle></clipPath><pattern x="0" y="0" width="6" height="6" patternUnits="userSpaceOnUse" id="SvgjsPattern61144"><path d="M3 1L3 5M1 3L5 3" stroke="rgba(199, 255, 0, 1)" fill="none" stroke-width="1.39"></path></pattern><clipPath id="SvgjsClipPath61143"><circle r="15" cx="959.72" cy="121.45"></circle></clipPath><pattern x="0" y="0" width="60" height="6" patternUnits="userSpaceOnUse" id="SvgjsPattern61146"><rect width="60" height="3" x="0" y="0" fill="rgba(255, 0, 0, 1)"></rect><rect width="60" height="3" x="0" y="3" fill="rgba(0, 0, 0, 0)"></rect></pattern><clipPath id="SvgjsClipPath61145"><circle r="15" cx="654.43" cy="57.63"></circle></clipPath><pattern x="0" y="0" width="10.4" height="10.4" patternUnits="userSpaceOnUse" id="SvgjsPattern61148"><path d="M5.2 1L5.2 9.4M1 5.2L9.4 5.2" stroke="rgba(0, 255, 40, 1)" fill="none" stroke-width="1.81"></path></pattern><clipPath id="SvgjsClipPath61147"><circle r="26" cx="1052.17" cy="37.51"></circle></clipPath><pattern x="0" y="0" width="80.4" height="8.04" patternUnits="userSpaceOnUse" id="SvgjsPattern61150"><rect width="80.4" height="4.02" x="0" y="0" fill="rgba(0, 109, 255, 1)"></rect><rect width="80.4" height="4.02" x="0" y="4.02" fill="rgba(0, 0, 0, 0)"></rect></pattern><clipPath id="SvgjsClipPath61149"><circle r="20.1" cx="1103.02" cy="29.14"></circle></clipPath><pattern x="0" y="0" width="60" height="6" patternUnits="userSpaceOnUse" id="SvgjsPattern61152"><rect width="60" height="3" x="0" y="0" fill="rgba(199, 255, 0, 1)"></rect><rect width="60" height="3" x="0" y="3" fill="rgba(0, 0, 0, 0)"></rect></pattern><clipPath id="SvgjsClipPath61151"><circle r="15" cx="276.17" cy="81.67"></circle></clipPath><pattern x="0" y="0" width="10.94" height="10.94" patternUnits="userSpaceOnUse" id="SvgjsPattern61154"><path d="M0 10.94L5.47 0L10.94 10.94" stroke="rgba(199, 255, 0, 1)" fill="none"></path></pattern><clipPath id="SvgjsClipPath61153"><circle r="27.349999999999998" cx="415.93" cy="121.91"></circle></clipPath><pattern x="0" y="0" width="9.46" height="9.46" patternUnits="userSpaceOnUse" id="SvgjsPattern61156"><path d="M0 9.46L4.73 0L9.46 9.46" stroke="rgba(0, 255, 40, 1)" fill="none"></path></pattern><clipPath id="SvgjsClipPath61155"><circle r="23.650000000000002" cx="542.95" cy="8.27"></circle></clipPath><pattern x="0" y="0" width="6" height="6" patternUnits="userSpaceOnUse" id="SvgjsPattern61158"><path d="M0 6L3 0L6 6" stroke="rgba(255, 120, 0, 1)" fill="none"></path></pattern><clipPath id="SvgjsClipPath61157"><circle r="15" cx="960.6" cy="98.94"></circle></clipPath><pattern x="0" y="0" width="60" height="6" patternUnits="userSpaceOnUse" id="SvgjsPattern61160"><rect width="60" height="3" x="0" y="0" fill="rgba(0, 255, 40, 1)"></rect><rect width="60" height="3" x="0" y="3" fill="rgba(0, 0, 0, 0)"></rect></pattern><clipPath id="SvgjsClipPath61159"><circle r="15" cx="934.19" cy="17.99"></circle></clipPath><pattern x="0" y="0" width="60" height="6" patternUnits="userSpaceOnUse" id="SvgjsPattern61162"><rect width="60" height="3" x="0" y="0" fill="rgba(0, 109, 255, 1)"></rect><rect width="60" height="3" x="0" y="3" fill="rgba(0, 0, 0, 0)"></rect></pattern><clipPath id="SvgjsClipPath61161"><circle r="15" cx="386.94" cy="43.68"></circle></clipPath><pattern x="0" y="0" width="6" height="6" patternUnits="userSpaceOnUse" id="SvgjsPattern61164"><path d="M0 6L3 0L6 6" stroke="rgba(0, 109, 255, 1)" fill="none"></path></pattern><clipPath id="SvgjsClipPath61163"><circle r="15" cx="610.65" cy="69.65"></circle></clipPath><pattern x="0" y="0" width="84" height="6" patternUnits="userSpaceOnUse" id="SvgjsPattern61166"><rect width="84" height="3" x="0" y="0" fill="rgba(199, 255, 0, 1)"></rect><rect width="84" height="3" x="0" y="3" fill="rgba(0, 0, 0, 0)"></rect></pattern><clipPath id="SvgjsClipPath61165"><circle r="21" cx="946.66" cy="90.03"></circle></clipPath><pattern x="0" y="0" width="79.6" height="7.96" patternUnits="userSpaceOnUse" id="SvgjsPattern61168"><rect width="79.6" height="3.98" x="0" y="0" fill="rgba(255, 0, 0, 1)"></rect><rect width="79.6" height="3.98" x="0" y="3.98" fill="rgba(0, 0, 0, 0)"></rect></pattern><clipPath id="SvgjsClipPath61167"><circle r="19.9" cx="1109.92" cy="6.25"></circle></clipPath><pattern x="0" y="0" width="9.52" height="9.52" patternUnits="userSpaceOnUse" id="SvgjsPattern61170"><path d="M0 9.52L4.76 0L9.52 9.52" stroke="rgba(0, 109, 255, 1)" fill="none"></path></pattern><clipPath id="SvgjsClipPath61169"><circle r="23.799999999999997" cx="345.2" cy="14.83"></circle></clipPath><pattern x="0" y="0" width="7.7" height="7.7" patternUnits="userSpaceOnUse" id="SvgjsPattern61172"><path d="M0 7.7L3.85 0L7.7 7.7" stroke="rgba(255, 120, 0, 1)" fill="none"></path></pattern><clipPath id="SvgjsClipPath61171"><circle r="19.25" cx="140.37" cy="4.19"></circle></clipPath><pattern x="0" y="0" width="84" height="6" patternUnits="userSpaceOnUse" id="SvgjsPattern61174"><rect width="84" height="3" x="0" y="0" fill="rgba(255, 120, 0, 1)"></rect><rect width="84" height="3" x="0" y="3" fill="rgba(0, 0, 0, 0)"></rect></pattern><clipPath id="SvgjsClipPath61173"><circle r="21" cx="898.89" cy="63.7"></circle></clipPath><pattern x="0" y="0" width="12.92" height="12.92" patternUnits="userSpaceOnUse" id="SvgjsPattern61176"><path d="M6.46 1L6.46 11.92M1 6.46L11.92 6.46" stroke="rgba(0, 255, 198, 1)" fill="none" stroke-width="2.76"></path></pattern><clipPath id="SvgjsClipPath61175"><circle r="32.3" cx="1122.41" cy="34.36"></circle></clipPath><pattern x="0" y="0" width="6" height="6" patternUnits="userSpaceOnUse" id="SvgjsPattern61178"><path d="M0 6L3 0L6 6" stroke="rgba(0, 255, 198, 1)" fill="none"></path></pattern><clipPath id="SvgjsClipPath61177"><circle r="15" cx="490.38" cy="113.09"></circle></clipPath><pattern x="0" y="0" width="60" height="6" patternUnits="userSpaceOnUse" id="SvgjsPattern61180"><rect width="60" height="3" x="0" y="0" fill="rgba(0, 255, 40, 1)"></rect><rect width="60" height="3" x="0" y="3" fill="rgba(0, 0, 0, 0)"></rect></pattern><clipPath id="SvgjsClipPath61179"><circle r="15" cx="437.37" cy="78.91"></circle></clipPath></defs></svg>