<svg xmlns="http://www.w3.org/2000/svg" version="1.1" xmlns:xlink="http://www.w3.org/1999/xlink" xmlns:svgjs="http://svgjs.com/svgjs" width="1300" height="400" preserveAspectRatio="none" viewBox="0 0 1300 400"><g mask="url(&quot;#SvgjsMask12721&quot;)" fill="none"><rect width="1300" height="400" x="0" y="0" fill="rgba(51, 68, 100, 1)"></rect><path d="M487.18 86.49000000000001 L489.07000000000005 177.72L530.408947952134 89.821052047866z" stroke="rgba(255, 0, 0, 1)" stroke-width="1.09"></path><rect width="239.6" height="239.6" clip-path="url(&quot;#SvgjsClipPath12722&quot;)" x="315.72" y="134.37" fill="url(#SvgjsPattern12723)" transform="rotate(111.33, 435.52, 254.17)"></rect><circle r="53.38110905968796" cx="481.16" cy="157.01" stroke="rgba(255, 120, 0, 1)" stroke-width="1.8" stroke-dasharray="4, 4"></circle><rect width="187.84" height="187.84" clip-path="url(&quot;#SvgjsClipPath12724&quot;)" x="132.66" y="216.58" fill="url(#SvgjsPattern12725)" transform="rotate(288.93, 226.58, 310.5)"></rect><path d="M101.61 447.22999999999996 L68.91 344.83L14.879141394946544 466.4108586050534z" fill="rgba(255, 0, 0, 1)"></path><rect width="110.19999999999999" height="110.19999999999999" clip-path="url(&quot;#SvgjsClipPath12726&quot;)" x="196.72" y="179.98" fill="url(#SvgjsPattern12727)" transform="rotate(36.7, 251.82, 235.08)"></rect><circle r="33.333333333333336" cx="1246.89" cy="59.69" fill="rgba(255, 120, 0, 1)"></circle><path d="M1177.59 277.1a5.6 5.6 0 1 0-7.59 8.24 5.6 5.6 0 1 0 7.59-8.24zM1166.75 288.87a5.6 5.6 0 1 0-7.59 8.24 5.6 5.6 0 1 0 7.59-8.24zM1155.91 300.64a5.6 5.6 0 1 0-7.59 8.24 5.6 5.6 0 1 0 7.59-8.24zM1145.07 312.41a5.6 5.6 0 1 0-7.58 8.24 5.6 5.6 0 1 0 7.58-8.24z" stroke="rgba(0, 255, 40, 1)" stroke-width="2.11" stroke-dasharray="3, 3"></path><rect width="72" height="72" clip-path="url(&quot;#SvgjsClipPath12728&quot;)" x="789.36" y="362.19" fill="url(#SvgjsPattern12729)" transform="rotate(27.42, 825.36, 398.19)"></rect><rect width="235.52" height="235.52" clip-path="url(&quot;#SvgjsClipPath12730&quot;)" x="271.64" y="-104.42" fill="url(#SvgjsPattern12731)" transform="rotate(349.81, 389.4, 13.34)"></rect><rect width="240.12" height="240.12" clip-path="url(&quot;#SvgjsClipPath12732&quot;)" x="429.98" y="190.64" fill="url(#SvgjsPattern12733)" transform="rotate(285.52, 550.04, 310.7)"></rect><circle r="33.333333333333336" cx="622.61" cy="324.16" fill="rgba(0, 255, 40, 1)"></circle><path d="M341.92 232.51L353.28 238.42 350 250.8 361.36 256.72 358.08 269.1 369.44 275.01 366.16 287.39M334.6 235.74L345.96 241.65 342.68 254.03 354.04 259.95 350.76 272.33 362.12 278.24 358.84 290.62" stroke="rgba(0, 255, 40, 1)" stroke-width="1.54" stroke-dasharray="4, 4"></path><rect width="65" height="65" clip-path="url(&quot;#SvgjsClipPath12734&quot;)" x="85.04" y="190.15" fill="url(#SvgjsPattern12735)" transform="rotate(305.53, 117.54, 222.65)"></rect><circle r="35.251202670815864" cx="352.3" cy="334.74" stroke="rgba(0, 109, 255, 1)" stroke-width="1" stroke-dasharray="4, 4"></circle></g><defs><mask id="SvgjsMask12721"><rect width="1300" height="400" fill="#ffffff"></rect></mask><pattern x="0" y="0" width="239.6" height="11.98" patternUnits="userSpaceOnUse" id="SvgjsPattern12723"><rect width="239.6" height="5.99" x="0" y="0" fill="rgba(199, 255, 0, 1)"></rect><rect width="239.6" height="5.99" x="0" y="5.99" fill="rgba(0, 0, 0, 0)"></rect></pattern><clipPath id="SvgjsClipPath12722"><circle r="59.9" cx="435.52" cy="254.17"></circle></clipPath><pattern x="0" y="0" width="187.84" height="11.74" patternUnits="userSpaceOnUse" id="SvgjsPattern12725"><rect width="187.84" height="5.87" x="0" y="0" fill="rgba(0, 109, 255, 1)"></rect><rect width="187.84" height="5.87" x="0" y="5.87" fill="rgba(0, 0, 0, 0)"></rect></pattern><clipPath id="SvgjsClipPath12724"><circle r="46.96" cx="226.58" cy="310.5"></circle></clipPath><pattern x="0" y="0" width="11.02" height="11.02" patternUnits="userSpaceOnUse" id="SvgjsPattern12727"><path d="M0 11.02L5.51 0L11.02 11.02" stroke="rgba(0, 109, 255, 1)" fill="none"></path></pattern><clipPath id="SvgjsClipPath12726"><circle r="27.549999999999997" cx="251.82" cy="235.08"></circle></clipPath><pattern x="0" y="0" width="6" height="6" patternUnits="userSpaceOnUse" id="SvgjsPattern12729"><path d="M3 1L3 5M1 3L5 3" stroke="rgba(0, 109, 255, 1)" fill="none" stroke-width="1.41"></path></pattern><clipPath id="SvgjsClipPath12728"><circle r="18" cx="825.36" cy="398.19"></circle></clipPath><pattern x="0" y="0" width="7.36" height="7.36" patternUnits="userSpaceOnUse" id="SvgjsPattern12731"><path d="M3.68 1L3.68 6.36M1 3.68L6.36 3.68" stroke="rgba(199, 255, 0, 1)" fill="none" stroke-width="1.36"></path></pattern><clipPath id="SvgjsClipPath12730"><circle r="58.88" cx="389.4" cy="13.34"></circle></clipPath><pattern x="0" y="0" width="13.34" height="13.34" patternUnits="userSpaceOnUse" id="SvgjsPattern12733"><path d="M6.67 1L6.67 12.34M1 6.67L12.34 6.67" stroke="rgba(230, 0, 255, 1)" fill="none" stroke-width="5.11"></path></pattern><clipPath id="SvgjsClipPath12732"><circle r="60.03" cx="550.04" cy="310.7"></circle></clipPath><pattern x="0" y="0" width="65" height="6.5" patternUnits="userSpaceOnUse" id="SvgjsPattern12735"><rect width="65" height="3.25" x="0" y="0" fill="rgba(0, 109, 255, 1)"></rect><rect width="65" height="3.25" x="0" y="3.25" fill="rgba(0, 0, 0, 0)"></rect></pattern><clipPath id="SvgjsClipPath12734"><circle r="16.25" cx="117.54" cy="222.65"></circle></clipPath></defs></svg>